@startuml
class PersonalInformationSettingsPresenter {
    + PersonalInformationSettingsPresenter(view:IPersonalInformationSettings, staff:StaffModel)
    + <<override>> CleanUp() : void
}
class "SettingsPresenter`1"<T> {
}
"SettingsPresenter`1" "<IPersonalInformationSettings>" <|-- PersonalInformationSettingsPresenter
IChildPresenter <|-- PersonalInformationSettingsPresenter
@enduml
